<?xml version="1.0" encoding="UTF-8"?>
<!DOCTYPE svg PUBLIC "-//W3C//DTD SVG 1.1//EN" "http://www.w3.org/Graphics/SVG/1.1/DTD/svg11.dtd">
<!-- Creator: CorelDRAW 2019 (64-Bit Оценочная версия) -->
<svg xmlns="http://www.w3.org/2000/svg" xml:space="preserve" width="100%" height="100%" version="1.1" style="shape-rendering:geometricPrecision; text-rendering:geometricPrecision; image-rendering:optimizeQuality; fill-rule:evenodd; clip-rule:evenodd"
viewBox="0 0 13806.23 13952.99"
 xmlns:xlink="http://www.w3.org/1999/xlink">
 <defs>
  <style type="text/css">
   <![CDATA[
    .fil0 {fill:#ACA793;fill-rule:nonzero}
   ]]>
  </style>
 </defs>
 <g id="Слой_x0020_1">
  <metadata id="CorelCorpID_0Corel-Layer"/>
  <path class="fil0" d="M747.46 39.49c-235.67,0 -422.68,122.3 -562.2,366.92 -123.7,223.23 -185.26,494.72 -185.26,814.47 0,319.76 61.56,590.15 185.26,811.19 139.52,246.81 326.53,370.21 562.2,370.21 233.33,0 419.18,-123.4 558.7,-370.21 126.05,-221.04 188.78,-491.43 188.78,-811.19 0,-319.75 -62.73,-591.24 -188.78,-814.47 -139.52,-244.62 -325.37,-366.92 -558.7,-366.92zm0 85.56c158.3,0 286.68,114.08 385.18,341.69 93.79,210.61 140.7,461.81 140.7,754.14 0,292.34 -46.91,543.53 -140.7,754.15 -98.5,227.61 -226.88,341.69 -385.18,341.69 -160.04,0 -289.6,-114.08 -388.09,-341.69 -89.7,-210.62 -134.25,-461.81 -134.25,-754.15 0,-294.52 44.55,-545.72 134.25,-754.14 98.49,-227.61 228.05,-341.69 388.09,-341.69z"/>
  <path id="1" class="fil0" d="M2023.74 2343.05l1210.61 0 0 -82.27c-180.57,0 -307.78,-14.81 -381.06,-44.98 -82.67,-30.16 -123.7,-85.56 -123.7,-167.28l0 -2048.52c-120.19,66.36 -229.23,117.92 -328.3,154.12 -125.46,43.32 -267.92,71.85 -425.63,87.2l0 64.17 305.44 0c75.63,0 131.91,12.07 168.25,35.65 39.29,25.23 58.63,68.56 58.63,128.34l0 1579.04c0,81.72 -38.69,137.12 -116.66,167.28 -68.6,30.17 -191.12,44.98 -367.58,44.98l0 82.27z"/>
  <path id="2" class="fil0" d="M3782.5 2343.05l1210.6 0 0 -82.27c-180.56,0 -307.77,-14.81 -381.06,-44.98 -82.66,-30.16 -123.7,-85.56 -123.7,-167.28l0 -2048.52c-120.19,66.36 -229.22,117.92 -328.3,154.12 -125.45,43.32 -267.92,71.85 -425.62,87.2l0 64.17 305.43 0c75.64,0 131.92,12.07 168.26,35.65 39.28,25.23 58.63,68.56 58.63,128.34l0 1579.04c0,81.72 -38.7,137.12 -116.66,167.28 -68.6,30.17 -191.13,44.98 -367.58,44.98l0 82.27z"/>
  <path id="3" class="fil0" d="M6023.73 39.49c-235.67,0 -422.68,122.3 -562.21,366.92 -123.7,223.23 -185.26,494.72 -185.26,814.47 0,319.76 61.56,590.15 185.26,811.19 139.53,246.81 326.54,370.21 562.21,370.21 233.33,0 419.18,-123.4 558.7,-370.21 126.04,-221.04 188.78,-491.43 188.78,-811.19 0,-319.75 -62.74,-591.24 -188.78,-814.47 -139.52,-244.62 -325.37,-366.92 -558.7,-366.92zm0 85.56c158.29,0 286.68,114.08 385.17,341.69 93.8,210.61 140.7,461.81 140.7,754.14 0,292.34 -46.9,543.53 -140.7,754.15 -98.49,227.61 -226.88,341.69 -385.17,341.69 -160.05,0 -289.61,-114.08 -388.09,-341.69 -89.71,-210.62 -134.26,-461.81 -134.26,-754.15 0,-294.52 44.55,-545.72 134.26,-754.14 98.48,-227.61 228.04,-341.69 388.09,-341.69z"/>
  <path id="4" class="fil0" d="M7300.01 2343.05l1210.6 0 0 -82.27c-180.56,0 -307.77,-14.81 -381.06,-44.98 -82.66,-30.16 -123.7,-85.56 -123.7,-167.28l0 -2048.52c-120.19,66.36 -229.22,117.92 -328.3,154.12 -125.45,43.32 -267.92,71.85 -425.62,87.2l0 64.17 305.43 0c75.64,0 131.92,12.07 168.26,35.65 39.28,25.23 58.63,68.56 58.63,128.34l0 1579.04c0,81.72 -38.7,137.12 -116.66,167.28 -68.6,30.17 -191.13,44.98 -367.58,44.98l0 82.27z"/>
  <path id="5" class="fil0" d="M9058.76 2343.05l1210.61 0 0 -82.27c-180.57,0 -307.78,-14.81 -381.06,-44.98 -82.67,-30.16 -123.7,-85.56 -123.7,-167.28l0 -2048.52c-120.19,66.36 -229.23,117.92 -328.3,154.12 -125.46,43.32 -267.92,71.85 -425.63,87.2l0 64.17 305.44 0c75.63,0 131.91,12.07 168.25,35.65 39.29,25.23 58.63,68.56 58.63,128.34l0 1579.04c0,81.72 -38.69,137.12 -116.66,167.28 -68.6,30.17 -191.12,44.98 -367.58,44.98l0 82.27z"/>
  <path id="6" class="fil0" d="M11299.99 39.49c-235.66,0 -422.68,122.3 -562.2,366.92 -123.7,223.23 -185.26,494.72 -185.26,814.47 0,319.76 61.56,590.15 185.26,811.19 139.52,246.81 326.54,370.21 562.2,370.21 233.33,0 419.18,-123.4 558.7,-370.21 126.05,-221.04 188.78,-491.43 188.78,-811.19 0,-319.75 -62.73,-591.24 -188.78,-814.47 -139.52,-244.62 -325.37,-366.92 -558.7,-366.92zm0 85.56c158.3,0 286.68,114.08 385.18,341.69 93.8,210.61 140.7,461.81 140.7,754.14 0,292.34 -46.9,543.53 -140.7,754.15 -98.5,227.61 -226.88,341.69 -385.18,341.69 -160.04,0 -289.6,-114.08 -388.09,-341.69 -89.7,-210.62 -134.25,-461.81 -134.25,-754.15 0,-294.52 44.55,-545.72 134.25,-754.14 98.49,-227.61 228.05,-341.69 388.09,-341.69z"/>
  <path id="7" class="fil0" d="M13058.75 39.49c-235.67,0 -422.68,122.3 -562.21,366.92 -123.7,223.23 -185.26,494.72 -185.26,814.47 0,319.76 61.56,590.15 185.26,811.19 139.53,246.81 326.54,370.21 562.21,370.21 233.33,0 419.18,-123.4 558.7,-370.21 126.04,-221.04 188.78,-491.43 188.78,-811.19 0,-319.75 -62.74,-591.24 -188.78,-814.47 -139.52,-244.62 -325.37,-366.92 -558.7,-366.92zm0 85.56c158.29,0 286.68,114.08 385.17,341.69 93.8,210.61 140.7,461.81 140.7,754.14 0,292.34 -46.9,543.53 -140.7,754.15 -98.49,227.61 -226.88,341.69 -385.17,341.69 -160.05,0 -289.61,-114.08 -388.09,-341.69 -89.71,-210.62 -134.26,-461.81 -134.26,-754.15 0,-294.52 44.55,-545.72 134.26,-754.14 98.48,-227.61 228.04,-341.69 388.09,-341.69z"/>
  <path id="8" class="fil0" d="M747.46 3889.73c-235.67,0 -422.68,122.3 -562.2,366.92 -123.7,223.23 -185.26,494.72 -185.26,814.47 0,319.76 61.56,590.15 185.26,811.19 139.52,246.81 326.53,370.21 562.2,370.21 233.33,0 419.18,-123.4 558.7,-370.21 126.05,-221.04 188.78,-491.43 188.78,-811.19 0,-319.75 -62.73,-591.24 -188.78,-814.47 -139.52,-244.62 -325.37,-366.92 -558.7,-366.92zm0 85.56c158.3,0 286.68,114.08 385.18,341.69 93.79,210.61 140.7,461.81 140.7,754.14 0,292.34 -46.91,543.53 -140.7,754.15 -98.5,227.61 -226.88,341.69 -385.18,341.69 -160.04,0 -289.6,-114.08 -388.09,-341.69 -89.7,-210.62 -134.25,-461.81 -134.25,-754.15 0,-294.52 44.55,-545.72 134.25,-754.14 98.49,-227.61 228.05,-341.69 388.09,-341.69z"/>
  <path id="9" class="fil0" d="M2023.74 6193.29l1210.61 0 0 -82.27c-180.57,0 -307.78,-14.81 -381.06,-44.98 -82.67,-30.16 -123.7,-85.56 -123.7,-167.28l0 -2048.52c-120.19,66.36 -229.23,117.92 -328.3,154.12 -125.46,43.32 -267.92,71.85 -425.63,87.2l0 64.17 305.44 0c75.63,0 131.91,12.07 168.25,35.65 39.29,25.23 58.63,68.56 58.63,128.34l0 1579.04c0,81.72 -38.69,137.12 -116.66,167.28 -68.6,30.17 -191.12,44.98 -367.58,44.98l0 82.27z"/>
  <path id="10" class="fil0" d="M3782.5 6193.29l1210.6 0 0 -82.27c-180.56,0 -307.77,-14.81 -381.06,-44.98 -82.66,-30.16 -123.7,-85.56 -123.7,-167.28l0 -2048.52c-120.19,66.36 -229.22,117.92 -328.3,154.12 -125.45,43.32 -267.92,71.85 -425.62,87.2l0 64.17 305.43 0c75.64,0 131.92,12.07 168.26,35.65 39.28,25.23 58.63,68.56 58.63,128.34l0 1579.04c0,81.72 -38.7,137.12 -116.66,167.28 -68.6,30.17 -191.13,44.98 -367.58,44.98l0 82.27z"/>
  <path id="11" class="fil0" d="M6023.73 3889.73c-235.67,0 -422.68,122.3 -562.21,366.92 -123.7,223.23 -185.26,494.72 -185.26,814.47 0,319.76 61.56,590.15 185.26,811.19 139.53,246.81 326.54,370.21 562.21,370.21 233.33,0 419.18,-123.4 558.7,-370.21 126.04,-221.04 188.78,-491.43 188.78,-811.19 0,-319.75 -62.74,-591.24 -188.78,-814.47 -139.52,-244.62 -325.37,-366.92 -558.7,-366.92zm0 85.56c158.29,0 286.68,114.08 385.17,341.69 93.8,210.61 140.7,461.81 140.7,754.14 0,292.34 -46.9,543.53 -140.7,754.15 -98.49,227.61 -226.88,341.69 -385.17,341.69 -160.05,0 -289.61,-114.08 -388.09,-341.69 -89.71,-210.62 -134.26,-461.81 -134.26,-754.15 0,-294.52 44.55,-545.72 134.26,-754.14 98.48,-227.61 228.04,-341.69 388.09,-341.69z"/>
  <path id="12" class="fil0" d="M7300.01 6193.29l1210.6 0 0 -82.27c-180.56,0 -307.77,-14.81 -381.06,-44.98 -82.66,-30.16 -123.7,-85.56 -123.7,-167.28l0 -2048.52c-120.19,66.36 -229.22,117.92 -328.3,154.12 -125.45,43.32 -267.92,71.85 -425.62,87.2l0 64.17 305.43 0c75.64,0 131.92,12.07 168.26,35.65 39.28,25.23 58.63,68.56 58.63,128.34l0 1579.04c0,81.72 -38.7,137.12 -116.66,167.28 -68.6,30.17 -191.13,44.98 -367.58,44.98l0 82.27z"/>
  <path id="13" class="fil0" d="M9058.76 6193.29l1210.61 0 0 -82.27c-180.57,0 -307.78,-14.81 -381.06,-44.98 -82.67,-30.16 -123.7,-85.56 -123.7,-167.28l0 -2048.52c-120.19,66.36 -229.23,117.92 -328.3,154.12 -125.46,43.32 -267.92,71.85 -425.63,87.2l0 64.17 305.44 0c75.63,0 131.91,12.07 168.25,35.65 39.29,25.23 58.63,68.56 58.63,128.34l0 1579.04c0,81.72 -38.69,137.12 -116.66,167.28 -68.6,30.17 -191.12,44.98 -367.58,44.98l0 82.27z"/>
  <path id="14" class="fil0" d="M10817.52 6193.29l1210.6 0 0 -82.27c-180.56,0 -307.77,-14.81 -381.06,-44.98 -82.66,-30.16 -123.7,-85.56 -123.7,-167.28l0 -2048.52c-120.19,66.36 -229.22,117.92 -328.3,154.12 -125.45,43.32 -267.92,71.85 -425.62,87.2l0 64.17 305.44 0c75.63,0 131.91,12.07 168.25,35.65 39.28,25.23 58.63,68.56 58.63,128.34l0 1579.04c0,81.72 -38.7,137.12 -116.66,167.28 -68.6,30.17 -191.13,44.98 -367.58,44.98l0 82.27z"/>
  <path id="15" class="fil0" d="M12576.27 6193.29l1210.61 0 0 -82.27c-180.57,0 -307.78,-14.81 -381.06,-44.98 -82.67,-30.16 -123.7,-85.56 -123.7,-167.28l0 -2048.52c-120.19,66.36 -229.23,117.92 -328.3,154.12 -125.46,43.32 -267.92,71.85 -425.63,87.2l0 64.17 305.44 0c75.64,0 131.91,12.07 168.25,35.65 39.29,25.23 58.63,68.56 58.63,128.34l0 1579.04c0,81.72 -38.69,137.12 -116.66,167.28 -68.6,30.17 -191.12,44.98 -367.58,44.98l0 82.27z"/>
  <path id="16" class="fil0" d="M747.46 7739.96c-235.67,0 -422.68,122.3 -562.2,366.92 -123.7,223.23 -185.26,494.72 -185.26,814.47 0,319.76 61.56,590.15 185.26,811.19 139.52,246.81 326.53,370.21 562.2,370.21 233.33,0 419.18,-123.4 558.7,-370.21 126.05,-221.04 188.78,-491.43 188.78,-811.19 0,-319.75 -62.73,-591.24 -188.78,-814.47 -139.52,-244.62 -325.37,-366.92 -558.7,-366.92zm0 85.56c158.3,0 286.68,114.08 385.18,341.69 93.79,210.61 140.7,461.81 140.7,754.14 0,292.34 -46.91,543.53 -140.7,754.15 -98.5,227.61 -226.88,341.69 -385.18,341.69 -160.04,0 -289.6,-114.08 -388.09,-341.69 -89.7,-210.62 -134.25,-461.81 -134.25,-754.15 0,-294.52 44.55,-545.72 134.25,-754.14 98.49,-227.61 228.05,-341.69 388.09,-341.69z"/>
  <path id="17" class="fil0" d="M2023.74 10043.52l1210.61 0 0 -82.27c-180.57,0 -307.78,-14.81 -381.06,-44.98 -82.67,-30.16 -123.7,-85.56 -123.7,-167.28l0 -2048.52c-120.19,66.36 -229.23,117.92 -328.3,154.12 -125.46,43.32 -267.92,71.85 -425.63,87.2l0 64.17 305.44 0c75.63,0 131.91,12.07 168.25,35.65 39.29,25.23 58.63,68.56 58.63,128.34l0 1579.04c0,81.72 -38.69,137.12 -116.66,167.28 -68.6,30.17 -191.12,44.98 -367.58,44.98l0 82.27z"/>
  <path id="18" class="fil0" d="M3782.5 10043.52l1210.6 0 0 -82.27c-180.56,0 -307.77,-14.81 -381.06,-44.98 -82.66,-30.16 -123.7,-85.56 -123.7,-167.28l0 -2048.52c-120.19,66.36 -229.22,117.92 -328.3,154.12 -125.45,43.32 -267.92,71.85 -425.62,87.2l0 64.17 305.43 0c75.64,0 131.92,12.07 168.26,35.65 39.28,25.23 58.63,68.56 58.63,128.34l0 1579.04c0,81.72 -38.7,137.12 -116.66,167.28 -68.6,30.17 -191.13,44.98 -367.58,44.98l0 82.27z"/>
  <path id="19" class="fil0" d="M5541.25 10043.52l1210.61 0 0 -82.27c-180.57,0 -307.78,-14.81 -381.06,-44.98 -82.67,-30.16 -123.7,-85.56 -123.7,-167.28l0 -2048.52c-120.19,66.36 -229.23,117.92 -328.3,154.12 -125.46,43.32 -267.92,71.85 -425.63,87.2l0 64.17 305.44 0c75.63,0 131.91,12.07 168.25,35.65 39.29,25.23 58.63,68.56 58.63,128.34l0 1579.04c0,81.72 -38.69,137.12 -116.66,167.28 -68.6,30.17 -191.12,44.98 -367.58,44.98l0 82.27z"/>
  <path id="20" class="fil0" d="M7782.48 7739.96c-235.67,0 -422.68,122.3 -562.2,366.92 -123.7,223.23 -185.26,494.72 -185.26,814.47 0,319.76 61.56,590.15 185.26,811.19 139.52,246.81 326.53,370.21 562.2,370.21 233.33,0 419.18,-123.4 558.7,-370.21 126.05,-221.04 188.78,-491.43 188.78,-811.19 0,-319.75 -62.73,-591.24 -188.78,-814.47 -139.52,-244.62 -325.37,-366.92 -558.7,-366.92zm0 85.56c158.3,0 286.68,114.08 385.18,341.69 93.79,210.61 140.7,461.81 140.7,754.14 0,292.34 -46.91,543.53 -140.7,754.15 -98.5,227.61 -226.88,341.69 -385.18,341.69 -160.04,0 -289.6,-114.08 -388.09,-341.69 -89.7,-210.62 -134.25,-461.81 -134.25,-754.15 0,-294.52 44.55,-545.72 134.25,-754.14 98.49,-227.61 228.05,-341.69 388.09,-341.69z"/>
  <path id="21" class="fil0" d="M9058.76 10043.52l1210.61 0 0 -82.27c-180.57,0 -307.78,-14.81 -381.06,-44.98 -82.67,-30.16 -123.7,-85.56 -123.7,-167.28l0 -2048.52c-120.19,66.36 -229.23,117.92 -328.3,154.12 -125.46,43.32 -267.92,71.85 -425.63,87.2l0 64.17 305.44 0c75.63,0 131.91,12.07 168.25,35.65 39.29,25.23 58.63,68.56 58.63,128.34l0 1579.04c0,81.72 -38.69,137.12 -116.66,167.28 -68.6,30.17 -191.12,44.98 -367.58,44.98l0 82.27z"/>
  <path id="22" class="fil0" d="M10817.52 10043.52l1210.6 0 0 -82.27c-180.56,0 -307.77,-14.81 -381.06,-44.98 -82.66,-30.16 -123.7,-85.56 -123.7,-167.28l0 -2048.52c-120.19,66.36 -229.22,117.92 -328.3,154.12 -125.45,43.32 -267.92,71.85 -425.62,87.2l0 64.17 305.44 0c75.63,0 131.91,12.07 168.25,35.65 39.28,25.23 58.63,68.56 58.63,128.34l0 1579.04c0,81.72 -38.7,137.12 -116.66,167.28 -68.6,30.17 -191.13,44.98 -367.58,44.98l0 82.27z"/>
  <path id="23" class="fil0" d="M13058.75 7739.96c-235.67,0 -422.68,122.3 -562.21,366.92 -123.7,223.23 -185.26,494.72 -185.26,814.47 0,319.76 61.56,590.15 185.26,811.19 139.53,246.81 326.54,370.21 562.21,370.21 233.33,0 419.18,-123.4 558.7,-370.21 126.04,-221.04 188.78,-491.43 188.78,-811.19 0,-319.75 -62.74,-591.24 -188.78,-814.47 -139.52,-244.62 -325.37,-366.92 -558.7,-366.92zm0 85.56c158.29,0 286.68,114.08 385.17,341.69 93.8,210.61 140.7,461.81 140.7,754.14 0,292.34 -46.9,543.53 -140.7,754.15 -98.49,227.61 -226.88,341.69 -385.17,341.69 -160.05,0 -289.61,-114.08 -388.09,-341.69 -89.71,-210.62 -134.26,-461.81 -134.26,-754.15 0,-294.52 44.55,-545.72 134.26,-754.14 98.48,-227.61 228.04,-341.69 388.09,-341.69z"/>
  <path id="24" class="fil0" d="M747.46 11590.2c-235.67,0 -422.68,122.3 -562.2,366.92 -123.7,223.23 -185.26,494.72 -185.26,814.47 0,319.76 61.56,590.15 185.26,811.19 139.52,246.81 326.53,370.21 562.2,370.21 233.33,0 419.18,-123.4 558.7,-370.21 126.05,-221.04 188.78,-491.43 188.78,-811.19 0,-319.75 -62.73,-591.24 -188.78,-814.47 -139.52,-244.62 -325.37,-366.92 -558.7,-366.92zm0 85.56c158.3,0 286.68,114.08 385.18,341.69 93.79,210.61 140.7,461.81 140.7,754.14 0,292.34 -46.91,543.53 -140.7,754.15 -98.5,227.61 -226.88,341.69 -385.18,341.69 -160.04,0 -289.6,-114.08 -388.09,-341.69 -89.7,-210.62 -134.25,-461.81 -134.25,-754.15 0,-294.52 44.55,-545.72 134.25,-754.14 98.49,-227.61 228.05,-341.69 388.09,-341.69z"/>
  <path id="25" class="fil0" d="M2023.74 13893.76l1210.61 0 0 -82.27c-180.57,0 -307.78,-14.81 -381.06,-44.98 -82.67,-30.16 -123.7,-85.56 -123.7,-167.28l0 -2048.52c-120.19,66.36 -229.23,117.92 -328.3,154.12 -125.46,43.32 -267.92,71.85 -425.63,87.2l0 64.17 305.44 0c75.63,0 131.91,12.07 168.25,35.65 39.29,25.23 58.63,68.56 58.63,128.34l0 1579.04c0,81.72 -38.69,137.12 -116.66,167.28 -68.6,30.17 -191.12,44.98 -367.58,44.98l0 82.27z"/>
  <path id="26" class="fil0" d="M3782.5 13893.76l1210.6 0 0 -82.27c-180.56,0 -307.77,-14.81 -381.06,-44.98 -82.66,-30.16 -123.7,-85.56 -123.7,-167.28l0 -2048.52c-120.19,66.36 -229.22,117.92 -328.3,154.12 -125.45,43.32 -267.92,71.85 -425.62,87.2l0 64.17 305.43 0c75.64,0 131.92,12.07 168.26,35.65 39.28,25.23 58.63,68.56 58.63,128.34l0 1579.04c0,81.72 -38.7,137.12 -116.66,167.28 -68.6,30.17 -191.13,44.98 -367.58,44.98l0 82.27z"/>
  <path id="27" class="fil0" d="M6023.73 11590.2c-235.67,0 -422.68,122.3 -562.21,366.92 -123.7,223.23 -185.26,494.72 -185.26,814.47 0,319.76 61.56,590.15 185.26,811.19 139.53,246.81 326.54,370.21 562.21,370.21 233.33,0 419.18,-123.4 558.7,-370.21 126.04,-221.04 188.78,-491.43 188.78,-811.19 0,-319.75 -62.74,-591.24 -188.78,-814.47 -139.52,-244.62 -325.37,-366.92 -558.7,-366.92zm0 85.56c158.29,0 286.68,114.08 385.17,341.69 93.8,210.61 140.7,461.81 140.7,754.14 0,292.34 -46.9,543.53 -140.7,754.15 -98.49,227.61 -226.88,341.69 -385.17,341.69 -160.05,0 -289.61,-114.08 -388.09,-341.69 -89.71,-210.62 -134.26,-461.81 -134.26,-754.15 0,-294.52 44.55,-545.72 134.26,-754.14 98.48,-227.61 228.04,-341.69 388.09,-341.69z"/>
  <path id="28" class="fil0" d="M7782.48 11590.2c-235.67,0 -422.68,122.3 -562.2,366.92 -123.7,223.23 -185.26,494.72 -185.26,814.47 0,319.76 61.56,590.15 185.26,811.19 139.52,246.81 326.53,370.21 562.2,370.21 233.33,0 419.18,-123.4 558.7,-370.21 126.05,-221.04 188.78,-491.43 188.78,-811.19 0,-319.75 -62.73,-591.24 -188.78,-814.47 -139.52,-244.62 -325.37,-366.92 -558.7,-366.92zm0 85.56c158.3,0 286.68,114.08 385.18,341.69 93.79,210.61 140.7,461.81 140.7,754.14 0,292.34 -46.91,543.53 -140.7,754.15 -98.5,227.61 -226.88,341.69 -385.18,341.69 -160.04,0 -289.6,-114.08 -388.09,-341.69 -89.7,-210.62 -134.25,-461.81 -134.25,-754.15 0,-294.52 44.55,-545.72 134.25,-754.14 98.49,-227.61 228.05,-341.69 388.09,-341.69z"/>
  <path id="29" class="fil0" d="M9058.76 13893.76l1210.61 0 0 -82.27c-180.57,0 -307.78,-14.81 -381.06,-44.98 -82.67,-30.16 -123.7,-85.56 -123.7,-167.28l0 -2048.52c-120.19,66.36 -229.23,117.92 -328.3,154.12 -125.46,43.32 -267.92,71.85 -425.63,87.2l0 64.17 305.44 0c75.63,0 131.91,12.07 168.25,35.65 39.29,25.23 58.63,68.56 58.63,128.34l0 1579.04c0,81.72 -38.69,137.12 -116.66,167.28 -68.6,30.17 -191.12,44.98 -367.58,44.98l0 82.27z"/>
  <path id="30" class="fil0" d="M11299.99 11590.2c-235.66,0 -422.68,122.3 -562.2,366.92 -123.7,223.23 -185.26,494.72 -185.26,814.47 0,319.76 61.56,590.15 185.26,811.19 139.52,246.81 326.54,370.21 562.2,370.21 233.33,0 419.18,-123.4 558.7,-370.21 126.05,-221.04 188.78,-491.43 188.78,-811.19 0,-319.75 -62.73,-591.24 -188.78,-814.47 -139.52,-244.62 -325.37,-366.92 -558.7,-366.92zm0 85.56c158.3,0 286.68,114.08 385.18,341.69 93.8,210.61 140.7,461.81 140.7,754.14 0,292.34 -46.9,543.53 -140.7,754.15 -98.5,227.61 -226.88,341.69 -385.18,341.69 -160.04,0 -289.6,-114.08 -388.09,-341.69 -89.7,-210.62 -134.25,-461.81 -134.25,-754.15 0,-294.52 44.55,-545.72 134.25,-754.14 98.49,-227.61 228.05,-341.69 388.09,-341.69z"/>
  <path id="31" class="fil0" d="M12576.27 13893.76l1210.61 0 0 -82.27c-180.57,0 -307.78,-14.81 -381.06,-44.98 -82.67,-30.16 -123.7,-85.56 -123.7,-167.28l0 -2048.52c-120.19,66.36 -229.23,117.92 -328.3,154.12 -125.46,43.32 -267.92,71.85 -425.63,87.2l0 64.17 305.44 0c75.64,0 131.91,12.07 168.25,35.65 39.29,25.23 58.63,68.56 58.63,128.34l0 1579.04c0,81.72 -38.69,137.12 -116.66,167.28 -68.6,30.17 -191.12,44.98 -367.58,44.98l0 82.27z"/>
 </g>
</svg>
