<?xml version="1.0" encoding="UTF-8"?>
<!DOCTYPE svg PUBLIC "-//W3C//DTD SVG 1.1//EN" "http://www.w3.org/Graphics/SVG/1.1/DTD/svg11.dtd">
<!-- Creator: CorelDRAW 2019 (64-Bit Оценочная версия) -->
<svg xmlns="http://www.w3.org/2000/svg" xml:space="preserve" width="100%" height="100%" version="1.1" style="shape-rendering:geometricPrecision; text-rendering:geometricPrecision; image-rendering:optimizeQuality; fill-rule:evenodd; clip-rule:evenodd"
viewBox="0 0 21000.01 8074.8"
 xmlns:xlink="http://www.w3.org/1999/xlink">
 <defs>
  <style type="text/css">
   <![CDATA[
    .fil0 {fill:white}
    .fil1 {fill:white;fill-rule:nonzero}
   ]]>
  </style>
 </defs>
 <g id="Слой_x0020_1">
  <metadata id="CorelCorpID_0Corel-Layer"/>
  <g id="layer101">
   <path class="fil0" d="M3505.05 8071.6c-37.19,-7.45 -200.15,-91.96 -323.86,-167.7 -83.17,-50.7 -471.94,-274.49 -1037.87,-597.69 -143.32,-81.8 -273.83,-156.85 -290.73,-166.99 -30.43,-19.61 -104.8,-62.21 -253.53,-146.05 -44.65,-25.02 -187.3,-107.5 -317.79,-182.56 -129.82,-75.06 -279.24,-160.25 -331.3,-189.3 -52.08,-29.08 -133.88,-76.41 -182.56,-104.8 -48.02,-29.08 -165.66,-97.37 -260.32,-152.13 -321.83,-185.93 -416.49,-244.09 -444.21,-274.52 -8.12,-8.78 -25.68,-34.49 -38.55,-56.8l-24.33 -39.88 1.35 -1961.44c1.35,-1597.01 3.37,-1964.84 10.82,-1981.05 25.02,-56.11 93.97,-114.96 237.99,-200.81 161.6,-96.68 649.77,-377.96 753.88,-434.76 29.74,-15.55 107.5,-60.17 172.42,-98.03 139.95,-82.49 178.48,-101.43 206.89,-101.43 22.98,0 46.64,18.27 58.82,45.98 6.08,14.22 8.78,482.76 11.49,1968.9 3.39,1892.49 4.06,1951.31 16.23,1974.29 31.1,58.82 59.51,87.23 124.4,128.46 106.15,66.94 375.92,225.83 579.44,341.45 104.13,58.82 213.66,121.7 243.4,139.29 29.76,17.57 98.05,57.47 152.13,87.9 54.1,30.41 177.15,101.41 273.85,156.85 418.51,241.38 477.33,274.49 548.32,314.39l75.06 41.92 90.6 0 91.27 0 137.93 -79.78c212.3,-121.7 272.48,-156.85 378.63,-219.07 98.05,-57.47 423.94,-244.75 449.64,-258.28 7.43,-4.06 18.25,-10.82 23.64,-14.88 5.41,-4.06 90.6,-54.1 189.32,-110.88 180.52,-104.13 467.88,-273.16 634.89,-374.59 100.05,-60.17 136.58,-95.99 165.66,-162.27l17.57 -39.21 0 -1102.08 0 -1101.41 -17.57 -35.15c-39.9,-79.8 -59.51,-97.37 -189.32,-175.13 -144.7,-85.86 -335.35,-195.4 -546.99,-313.04 -85.19,-48 -182.56,-102.78 -215.01,-123.05 -33.14,-19.61 -60.86,-35.84 -61.53,-35.84 -1.35,0 -32.45,-16.9 -68.96,-37.86 -37.19,-20.96 -148.76,-83.84 -249.5,-139.29 -100.07,-56.11 -189.99,-107.5 -199.46,-113.58 -26.37,-18.25 -374.57,-208.24 -440.84,-240.03 -32.45,-16.23 -71.66,-31.1 -85.86,-33.8 -77.09,-12.86 -164.97,29.74 -680.2,331.3 -121.7,71 -382,216.36 -440.82,246.1 -23,11.49 -50.72,20.96 -61.53,20.96 -31.12,0 -50.72,-27.04 -56.8,-76.41 -8.78,-77.07 -14.88,-1374.55 -6.76,-1436.08 13.53,-98.72 51.39,-152.82 150.78,-215.01 136.58,-86.54 858.68,-501.01 968.89,-556.46 43.96,-21.63 99.39,-26.37 148.07,-12.18 20.29,6.1 73.7,29.76 117.66,52.08 121.01,62.88 487.48,267.73 529.4,296.81 9.47,6.1 32.45,20.29 50.7,30.43 50.72,27.72 494.93,281.28 591.62,337.39 46.64,27.04 173.09,100.05 280.59,160.91 108.17,61.53 254.22,145.36 324.53,185.93 156.19,90.6 396.21,228.54 618.67,355.65 91.27,52.06 217.71,125.07 280.59,162.27 63.54,37.19 154.83,89.94 202.83,117.64 383.37,220.42 460.45,273.85 475.99,330.63 23.67,83.17 24.33,158.23 22.98,1976.99 -1.35,983.77 -4.72,1835.69 -8.1,1893.84 -4.06,71 -8.8,111.56 -16.23,125.09 -33.14,62.88 -99.39,112.23 -329.28,242.73 -83.84,48 -206.89,118.31 -273.83,157.52 -66.94,38.55 -206.89,119.01 -311.02,178.5 -180.52,103.45 -255.57,146.72 -439.49,253.56 -44.63,25.68 -166.32,95.33 -270.44,154.15 -104.13,58.84 -204.21,116.97 -223.13,128.46 -18.25,12.18 -87.23,51.39 -152.13,87.9 -64.92,37.19 -186.62,106.15 -270.46,154.83 -83.84,48.02 -272.48,156.87 -419.19,240.71 -351.59,201.48 -394.86,227.18 -503.72,299.51 -54.1,35.84 -181.21,102.09 -233.26,122.39 -53.41,19.61 -95.33,25.02 -132.52,17.59l0 0 0.06 0z"/>
   <path class="fil0" d="M3458.38 5369.12c-42.59,-15.55 -165.64,-82.49 -334.67,-182.56 -72.35,-42.61 -207.58,-122.39 -300.89,-177.15 -240.03,-140.64 -382.69,-230.56 -404.33,-254.22 -10.14,-10.82 -27.04,-37.19 -37.17,-57.47l-18.25 -37.19 0 -601.75 0 -601.75 14.86 -32.45c26.37,-56.8 52.74,-82.49 142.66,-138.62 94,-59.49 365.12,-218.38 450.98,-265.02 29.76,-16.23 83.17,-46.66 118.33,-67.62 78.43,-47.33 253.56,-143.35 337.39,-185.26 71,-35.82 102.78,-41.92 159.56,-31.76 75.72,14.2 136.58,46.64 811.35,438.8 116.31,67.62 266.4,167.01 286,189.32 26.37,31.76 41.92,66.94 48.68,114.27 4.06,27.04 6.76,278.55 6.76,613.24l0 567.95 -27.04 43.94c-14.88,24.35 -32.47,51.39 -39.9,59.51 -18.25,21.63 -152.13,102.76 -443.55,269.1 -137.25,78.43 -263.01,150.09 -278.55,159.56 -125.09,72.35 -273.16,152.8 -307.63,167.01 -56.8,22.29 -137.27,27.04 -184.6,10.14l0 0 0.01 -0.02z"/>
  </g>
  <path class="fil1" d="M10160.08 3908.5c82.99,25.52 163.6,61.44 241.8,107.71 78.2,46.29 147.63,103.74 208.29,172.38 60.63,68.62 109.31,148.42 146.03,239.38 36.69,90.98 55.05,192.32 55.05,304.05 0,140.43 -21.54,271.31 -64.63,392.61 -43.11,121.28 -122.91,227.41 -239.4,318.39 -116.52,90.98 -280.09,162.79 -490.77,215.47 -210.66,52.66 -483.59,78.99 -818.74,78.99 -357.5,0 -622.44,-4.79 -794.8,-14.36 -51.08,-3.18 -94.16,-23.15 -129.28,-59.84 -35.11,-36.72 -52.66,-80.61 -52.66,-131.67l0 -2911.08c0,-47.89 17.55,-90.17 52.66,-126.88 35.11,-36.72 76.62,-58.26 124.49,-64.65 57.45,-3.18 108.52,-6.37 153.21,-9.57 44.69,-3.18 97.35,-6.37 158,-9.57 60.65,-3.18 137.27,-4.79 229.83,-4.79 92.56,0 213.86,0 363.89,0 229.81,0 426.91,23.15 591.3,69.44 164.39,46.27 298.45,107.73 402.19,184.33 103.74,76.62 179.56,165.18 227.43,265.73 47.87,100.55 71.81,205.08 71.81,313.6 0,63.86 -11.97,128.48 -35.9,193.92 -23.94,65.44 -55.86,126.09 -95.76,181.93 -39.9,55.86 -86.17,106.94 -138.85,153.21 -52.66,46.29 -107.71,82.19 -165.18,107.73l0 33.53 -0.01 0.01zm-1082.08 -210.68l210.68 0c143.64,0 260.13,-27.14 349.51,-81.4 89.38,-54.26 134.06,-142.03 134.06,-263.34 0,-102.13 -33.51,-181.93 -100.53,-239.38 -67.04,-57.47 -181.96,-86.19 -344.74,-86.19 -25.54,0 -60.65,1.6 -105.34,4.79 -44.69,3.18 -92.56,7.97 -143.64,14.36l0 651.16zm0 1369.35c63.84,3.21 114.12,5.6 150.82,7.18 36.72,1.6 64.65,2.39 83.8,2.39 19.15,0 32.72,0 40.69,0 7.99,0 15.17,0 21.54,0 172.38,0 301.66,-27.93 387.83,-83.78 86.19,-55.86 129.28,-150.82 129.28,-284.88 0,-121.3 -44.69,-215.47 -134.06,-282.51 -89.38,-67.02 -237.8,-100.53 -445.27,-100.53l-234.61 0 0 742.12 -0.02 0.01z"/>
  <path id="_1" class="fil1" d="M11462.41 5699.19c-54.28,0 -99.76,-18.36 -136.46,-55.05 -36.72,-36.72 -55.07,-82.19 -55.07,-136.46l0 -1886.47c0,-54.26 18.36,-99.74 55.07,-136.46 36.69,-36.69 82.17,-55.05 136.46,-55.05l421.34 0c54.26,0 99.74,18.36 136.46,55.05 36.69,36.72 55.05,82.19 55.05,136.46l0 1886.47c0,54.26 -18.36,99.74 -55.05,136.46 -36.72,36.69 -82.19,55.05 -136.46,55.05l-421.34 0zm612.84 -2901.51c0,111.73 -35.9,201.9 -107.73,270.52 -71.81,68.62 -169.97,102.95 -294.45,102.95 -127.67,0 -227.43,-34.32 -299.24,-102.95 -71.83,-68.62 -107.73,-158.79 -107.73,-270.52 0,-111.71 35.9,-201.9 107.73,-270.52 71.81,-68.62 171.57,-102.95 299.24,-102.95 124.49,0 222.65,34.32 294.45,102.95 71.83,68.62 107.73,158.81 107.73,270.52z"/>
  <path id="_2" class="fil1" d="M14383.04 5426.27c3.21,12.76 4.79,30.33 4.79,52.66 0,44.69 -14.36,83.8 -43.08,117.31 -28.72,33.51 -65.44,55.07 -110.13,64.65 -111.71,25.54 -229.02,44.69 -351.92,57.45 -122.89,12.78 -230.62,19.15 -323.18,19.15 -542.64,0 -813.95,-242.59 -813.95,-727.76l0 -1053.35 -81.4 0c-54.26,0 -99.74,-18.36 -136.46,-55.07 -36.69,-36.69 -55.05,-82.17 -55.05,-136.46l0 -143.64c0,-54.26 18.36,-99.74 55.05,-136.46 36.72,-36.69 82.19,-55.05 136.46,-55.05l81.4 0 0 -268.13c0,-35.11 12.76,-70.23 38.3,-105.34 25.54,-35.11 54.26,-59.05 86.19,-71.81 73.41,-28.74 140.45,-55.86 201.08,-81.4 60.65,-25.54 127.69,-54.26 201.1,-86.19 38.3,-15.94 70.23,-23.94 95.76,-23.94 51.06,0 94.16,17.57 129.28,52.68 35.11,35.09 52.66,82.99 52.66,143.64l0 440.49 373.46 0c54.26,0 99.74,18.36 136.46,55.05 36.69,36.72 55.05,82.19 55.05,136.46l0 143.64c0,54.28 -18.36,99.76 -55.05,136.46 -36.72,36.72 -82.19,55.07 -136.46,55.07l-373.46 0 0 967.16c0,63.84 23.94,110.92 71.83,141.24 47.87,30.33 110.11,45.5 186.72,45.5 73.41,0 164.39,-12.78 272.91,-38.32 9.57,-3.18 23.94,-4.79 43.08,-4.79 41.5,0 79.8,11.97 114.91,35.92 35.11,23.94 59.05,56.66 71.83,98.14l71.81 225.04 0.01 0z"/>
  <path id="_3" class="fil1" d="M14632.02 3621.2c0,-54.26 18.36,-99.74 55.07,-136.46 36.69,-36.69 82.17,-55.05 136.46,-55.05l421.34 0c54.26,0 99.74,18.36 136.46,55.05 36.69,36.72 55.05,82.19 55.05,136.46l0 1292.75c0,86.19 27.14,150.82 81.4,193.92 54.26,43.08 124.49,64.63 210.66,64.63 54.26,0 116.52,-14.36 186.74,-43.08 70.23,-28.74 124.49,-73.43 162.79,-134.06l0 -1374.16c0,-54.26 18.36,-99.74 55.05,-136.46 36.72,-36.69 82.19,-55.05 136.46,-55.05l421.36 0c54.26,0 99.74,18.36 136.46,55.05 36.69,36.72 55.05,82.19 55.05,136.46l0 1886.47c0,54.26 -18.36,99.74 -55.05,136.46 -36.72,36.69 -82.19,55.05 -136.46,55.05l-311.23 0c-54.26,0 -99.74,-18.36 -136.46,-55.05 -36.69,-36.72 -55.05,-82.19 -55.05,-136.46l0 -28.74 -52.68 0c-92.56,89.38 -201.08,154.81 -325.57,196.32 -124.49,41.48 -237.8,62.23 -339.95,62.23 -118.1,0 -228.22,-11.97 -330.36,-35.9 -102.13,-23.94 -190.72,-65.44 -265.73,-124.49 -75.01,-59.05 -134.06,-138.06 -177.15,-237.01 -43.11,-98.95 -64.65,-221.84 -64.65,-368.66l0 -1350.22 -0.01 0z"/>
  <path id="_4" class="fil1" d="M21000 5507.68c0,54.26 -18.36,99.74 -55.07,136.46 -36.69,36.69 -82.19,55.05 -136.46,55.05l-421.34 0c-54.26,0 -99.74,-18.36 -136.46,-55.05 -36.69,-36.72 -55.05,-82.19 -55.05,-136.46l0 -1326.26c0,-60.65 -22.35,-113.33 -67.04,-158.02 -44.69,-44.69 -111.71,-67.02 -201.08,-67.02 -118.1,0 -221.86,59.05 -311.23,177.15l0 1374.16c0,54.26 -18.34,99.74 -55.05,136.46 -36.72,36.69 -82.19,55.05 -136.46,55.05l-392.61 0c-54.26,0 -99.74,-18.36 -136.46,-55.05 -36.72,-36.72 -55.05,-82.19 -55.05,-136.46l0 -1326.26c0,-60.65 -22.35,-113.33 -67.04,-158.02 -44.69,-44.69 -113.31,-67.02 -205.87,-67.02 -47.89,0 -102.15,14.36 -162.81,43.08 -60.63,28.72 -111.71,71.83 -153.21,129.28l0 1378.94c0,54.26 -18.36,99.74 -55.05,136.46 -36.72,36.69 -82.19,55.05 -136.46,55.05l-421.34 0c-54.28,0 -99.76,-18.36 -136.46,-55.05 -36.72,-36.72 -55.07,-82.19 -55.07,-136.46l0 -1886.47c0,-54.26 18.36,-99.74 55.07,-136.46 36.69,-36.69 82.17,-55.05 136.46,-55.05l282.49 0c54.26,0 99.74,18.36 136.46,55.05 36.69,36.72 55.05,82.19 55.05,136.46l0 33.53 57.47 0c41.48,-41.5 90.96,-79.01 148.42,-112.52 57.45,-33.51 115.7,-61.44 174.75,-83.8 59.05,-22.33 118.91,-39.09 179.54,-50.27 60.65,-11.18 116.52,-16.76 167.59,-16.76 111.71,0 225.83,16.76 342.33,50.27 116.52,33.51 214.65,104.53 294.45,213.07l43.11 0c102.13,-92.58 216.26,-159.6 342.33,-201.1 126.09,-41.5 240.19,-62.23 342.35,-62.23 95.76,0 190.72,10.37 284.88,31.12 94.16,20.75 179.54,58.26 256.16,112.52 76.62,54.26 138.06,127.67 184.33,220.23 46.29,92.58 69.44,209.08 69.44,349.53l0 1402.88 -0.01 -0.01z"/>
 </g>
</svg>
